<svg width="226" height="36" viewBox="0 0 226 36" fill="none" xmlns="http://www.w3.org/2000/svg">
<path d="M0.792 2.072H12.984C18.264 2.072 22.328 3.432 25.176 6.152C28.024 8.84 29.448 12.968 29.448 18.536C29.448 24.104 28.024 28.248 25.176 30.968C22.328 33.656 18.264 35 12.984 35H0.792V2.072ZM12.984 31.016C16.792 31.016 19.688 30.056 21.672 28.136C23.688 26.216 24.712 23.048 24.744 18.632V18.536C24.744 14.088 23.736 10.904 21.72 8.984C19.736 7.032 16.824 6.056 12.984 6.056H5.352V31.016H12.984ZM47.5766 35.576C43.5766 35.576 40.3126 34.776 37.7846 33.176C35.2566 31.576 33.9926 29.08 33.9926 25.688L34.0406 24.728H38.5526C38.4886 25.176 38.4566 25.512 38.4566 25.736C38.4566 27.688 39.2566 29.176 40.8566 30.2C42.4886 31.192 44.6486 31.688 47.3366 31.688C50.3446 31.688 52.6486 31.224 54.2486 30.296C55.8486 29.336 56.6486 27.976 56.6486 26.216C56.6486 25.032 56.2326 24.056 55.4006 23.288C54.5686 22.488 53.5126 21.864 52.2326 21.416C50.9846 20.968 49.2886 20.472 47.1446 19.928C44.4886 19.256 42.3446 18.616 40.7126 18.008C39.0806 17.368 37.6886 16.44 36.5366 15.224C35.3846 13.976 34.8086 12.344 34.8086 10.328C34.8086 7.448 36.0086 5.256 38.4086 3.752C40.8086 2.248 43.8806 1.496 47.6246 1.496C51.3686 1.496 54.4086 2.264 56.7446 3.8C59.0806 5.304 60.2486 7.624 60.2486 10.76V11.336H55.7846V10.616C55.7846 8.984 55.0326 7.704 53.5286 6.776C52.0566 5.848 50.1366 5.384 47.7686 5.384C45.2406 5.384 43.2086 5.768 41.6726 6.536C40.1686 7.304 39.4166 8.456 39.4166 9.992C39.4166 11.112 39.8166 12.024 40.6166 12.728C41.4486 13.432 42.4566 14.008 43.6406 14.456C44.8566 14.872 46.5366 15.352 48.6806 15.896C51.3366 16.568 53.4966 17.224 55.1606 17.864C56.8566 18.504 58.2806 19.448 59.4326 20.696C60.6166 21.912 61.2086 23.512 61.2086 25.496C61.2086 29.016 59.9766 31.576 57.5126 33.176C55.0806 34.776 51.7686 35.576 47.5766 35.576ZM80.8076 2.072H92.9996C98.2796 2.072 102.344 3.432 105.192 6.152C108.04 8.84 109.464 12.968 109.464 18.536C109.464 24.104 108.04 28.248 105.192 30.968C102.344 33.656 98.2796 35 92.9996 35H80.8076V2.072ZM92.9996 31.016C96.8076 31.016 99.7036 30.056 101.688 28.136C103.704 26.216 104.728 23.048 104.76 18.632V18.536C104.76 14.088 103.752 10.904 101.736 8.984C99.7516 7.032 96.8396 6.056 92.9996 6.056H85.3676V31.016H92.9996ZM125.576 35.576C121.512 35.576 118.488 34.504 116.504 32.36C114.52 30.216 113.528 26.888 113.528 22.376C113.528 17.864 114.52 14.536 116.504 12.392C118.488 10.248 121.512 9.176 125.576 9.176C129.224 9.176 131.944 10.152 133.736 12.104C135.56 14.024 136.472 17.128 136.472 21.416V23.528H117.896C118.056 26.44 118.744 28.6 119.96 30.008C121.208 31.384 123.08 32.072 125.576 32.072C127.592 32.072 129.224 31.608 130.472 30.68C131.72 29.752 132.344 28.328 132.344 26.408H136.472C136.472 29.352 135.448 31.624 133.4 33.224C131.384 34.792 128.776 35.576 125.576 35.576ZM132.056 20.024C132.056 15.128 129.896 12.68 125.576 12.68C123.176 12.68 121.368 13.256 120.152 14.408C118.968 15.56 118.248 17.432 117.992 20.024H132.056ZM141.544 0.295998H145.768V35H141.544V0.295998ZM152.185 0.295998H156.361V4.856H152.185V0.295998ZM152.185 9.752H156.409V35H152.185V9.752ZM160.233 9.752H164.697L169.161 22.376C169.801 24.168 170.633 26.808 171.657 30.296H171.897C172.825 27 173.641 24.36 174.345 22.376L178.761 9.752H182.985L173.721 35H169.497L160.233 9.752ZM197.529 35.576C193.465 35.576 190.441 34.504 188.457 32.36C186.473 30.216 185.481 26.888 185.481 22.376C185.481 17.864 186.473 14.536 188.457 12.392C190.441 10.248 193.465 9.176 197.529 9.176C201.177 9.176 203.897 10.152 205.689 12.104C207.513 14.024 208.425 17.128 208.425 21.416V23.528H189.849C190.009 26.44 190.697 28.6 191.913 30.008C193.161 31.384 195.033 32.072 197.529 32.072C199.545 32.072 201.177 31.608 202.425 30.68C203.673 29.752 204.297 28.328 204.297 26.408H208.425C208.425 29.352 207.401 31.624 205.353 33.224C203.337 34.792 200.729 35.576 197.529 35.576ZM204.009 20.024C204.009 15.128 201.849 12.68 197.529 12.68C195.129 12.68 193.321 13.256 192.105 14.408C190.921 15.56 190.201 17.432 189.945 20.024H204.009ZM213.497 9.752H216.713L217.193 13.544H217.481C217.961 12.296 218.681 11.256 219.641 10.424C220.601 9.592 221.865 9.176 223.433 9.176C224.297 9.176 225.049 9.304 225.689 9.56V13.64H223.913C222.121 13.64 220.633 14.168 219.449 15.224C218.297 16.248 217.721 17.864 217.721 20.072V35H213.497V9.752Z" fill="black"/>
</svg>
